<svg id="Layer_1" data-name="Layer 1" xmlns="http://www.w3.org/2000/svg" viewBox="0 0 1385 677.43"><defs><style>.cls-1,.cls-2,.cls-4{fill:none;}.cls-1{stroke:#03045e;}.cls-1,.cls-2,.cls-3,.cls-4{stroke-miterlimit:10;}.cls-1,.cls-3,.cls-4{stroke-width:16px;}.cls-2,.cls-4{stroke:#0077b6;}.cls-2{stroke-width:18px;}.cls-3{stroke:#000;}.cls-5{fill:#ed3694;}</style></defs><path class="cls-1" d="M773.77,19.78H127.09c-34,0-61.59,28.51-61.59,63.67h0c0,30.56,24,55.33,53.53,55.33H531" transform="translate(-57.5 -10.78)"/><path class="cls-1" d="M788.28,672C607.42,672,459.91,526,459.91,346S607.42,20,789.25,20V118.9C661.46,118.9,558.68,220.58,558.68,346s102.78,227.1,229.6,227.1Z" transform="translate(-57.5 -10.78)"/><path class="cls-2" d="M820.51,671.71c181.26,0,328.77-145.94,328.77-326s-147.51-326-329.74-326v98.86c127,0,229.79,101.68,229.79,227.11s-102.77,227.1-228.82,227.1Z" transform="translate(-57.5 -10.78)"/><ellipse class="cls-3" cx="660.95" cy="247.24" rx="17.9" ry="49.5"/><ellipse class="cls-3" cx="837.02" cy="247.24" rx="17.9" ry="49.5"/><path class="cls-4" d="M1433.77,629.3a57.41,57.41,0,0,1-20.43,36.38c-26.65,21.94-64.48,18.67-84.49-7.3l-155.2-201.44-31.57-43.15" transform="translate(-57.5 -10.78)"/><path class="cls-4" d="M1340.63,482.36,1425,591.9c8.22,10.65,11,24.17,8.75,37.4" transform="translate(-57.5 -10.78)"/><line class="cls-4" x1="1274.31" y1="460.13" x2="1283.13" y2="471.58"/><polyline class="cls-4" points="1031.22 146.59 1163.92 316.85 1274.31 460.13"/><path class="cls-4" d="M1331.81,534.94" transform="translate(-57.5 -10.78)"/><path class="cls-4" d="M1433.76,634.39l.06-544.08c0-34.06-24.42-61.68-54.55-61.69h0c-26.2,0-47.43,24-47.43,53.61l0,343.5v45.18" transform="translate(-57.5 -10.78)"/><ellipse class="cls-5" cx="593.72" cy="364.24" rx="37.24" ry="22.5"/><ellipse class="cls-5" cx="906.67" cy="364.24" rx="37.24" ry="22.5"/></svg>